inDegrees=no
num_controls=7
num_derivatives=13
num_iterations=104
num_multipliers=7
num_parameters=0
num_slacks=7
num_states=26
objective=5.281117
objective_accelerations=0.478209
objective_balance=0.094822
objective_effort=0.385902
objective_height=4.239973
objective_ligament=0.082211
solver_duration=1184.757611
status=Solve_Succeeded
success=true
DataType=double
version=3
OpenSimVersion=4.4-2022-07-23-0e9fedc
endheader
time	/jointset/ground_pelvis/pelvis_tilt/value	/jointset/ground_pelvis/pelvis_tx/value	/jointset/ground_pelvis/pelvis_ty/value	/jointset/hip_l/hip_flexion_l/value	/jointset/hip_l/hip_adduction_l/value	/jointset/hip_l/hip_rotation_l/value	/jointset/back/lumbar_extension/value	/jointset/patellofemoral_l/patellar_flexion_l/value	/jointset/knee_l/knee_flexion_l/value	/jointset/knee_l/knee_adduction_l/value	/jointset/knee_l/knee_rotation_l/value	/jointset/ankle_l/ankle_angle_l/value	/jointset/subtalar_l/subtalar_angle_l/value	/jointset/ground_pelvis/pelvis_tilt/speed	/jointset/ground_pelvis/pelvis_tx/speed	/jointset/ground_pelvis/pelvis_ty/speed	/jointset/hip_l/hip_flexion_l/speed	/jointset/hip_l/hip_adduction_l/speed	/jointset/hip_l/hip_rotation_l/speed	/jointset/back/lumbar_extension/speed	/jointset/patellofemoral_l/patellar_flexion_l/speed	/jointset/knee_l/knee_flexion_l/speed	/jointset/knee_l/knee_adduction_l/speed	/jointset/knee_l/knee_rotation_l/speed	/jointset/ankle_l/ankle_angle_l/speed	/jointset/subtalar_l/subtalar_angle_l/speed	/forceset/tau_hip_flexion_l	/forceset/tau_hip_adduction_l	/forceset/tau_hip_rotation_l	/forceset/tau_knee_flexion_l	/forceset/tau_ankle_angle_l	/forceset/tau_subtalar_angle_l	/forceset/tau_lumbar_extension	lambda_cid13_p0	lambda_cid13_p1	lambda_cid13_p2	lambda_cid13_p3	lambda_cid13_p4	lambda_cid13_p5	lambda_cid14_p0	/jointset/ground_pelvis/pelvis_tilt/accel	/jointset/ground_pelvis/pelvis_tx/accel	/jointset/ground_pelvis/pelvis_ty/accel	/jointset/hip_l/hip_flexion_l/accel	/jointset/hip_l/hip_adduction_l/accel	/jointset/hip_l/hip_rotation_l/accel	/jointset/back/lumbar_extension/accel	/jointset/patellofemoral_l/patellar_flexion_l/accel	/jointset/knee_l/knee_flexion_l/accel	/jointset/knee_l/knee_adduction_l/accel	/jointset/knee_l/knee_rotation_l/accel	/jointset/ankle_l/ankle_angle_l/accel	/jointset/subtalar_l/subtalar_angle_l/accel	gamma_cid13_p0	gamma_cid13_p1	gamma_cid13_p2	gamma_cid13_p3	gamma_cid13_p4	gamma_cid13_p5	gamma_cid14_p0
1	-0.5987199765893704	-0.0978770493901823	0.6531850393140377	1.736774612060605	-0.3023210665069119	0.09185914090839868	-0.4363264024153657	1.072540563790254	1.072540563789997	-0.1745041983915147	0.1745213231249519	0.124968120561134	-0.02788268489280782	-0.01029584375072835	0.0006777192832856751	-0.003095732300834272	0.01618682158924244	0.0005316683453667411	0.003252993331231665	0.0002518662031965202	0.00868787370486874	0.008687873704878632	-1.369287198926233e-05	-2.00057457342681e-05	0.003453834555266048	0.001202615863375013	-0.4033239200031158	0.02828170134035366	-0.01996979927698284	-0.2297652340094095	0.08451504581883462	0.03658603306268658	0.3323196371187118	-17.627871172249	-13.40749542269586	2.42580823022431	10.07344846172038	-710.9778054777056	-43.94281156985529	-5.091285723087434	1.813868410956795	0.2382109311331628	1.386027669045893	-5.516477744250272	-0.240181740625185	-1.515728743540967	-0.02698734655954287	-4.21431878597426	-4.214318785974413	-0.03336780735012922	0.01062013525182213	-0.7784401226053158	-0.376425693092353	1.512831059550432e-09	2.772531710381415e-09	-3.813223374653675e-09	-2.11317651640754e-09	2.20648128838673e-09	2.396274372014318e-10	7.23038874053222e-10
1.01	-0.5987329057836109	-0.09785841039410743	0.6532232474290208	1.736661650665137	-0.3023270515135472	0.09181537477621217	-0.4363245953822163	1.072417082267975	1.07241708226699	-0.1745043795743618	0.1745211389740715	0.1249639471651758	-0.02788865034072588	0.007707580397546857	0.003050682392733484	0.01073344652195349	-0.03876815135710712	-0.001727560074487105	-0.01200403307354363	0.000100729118541299	-0.03337513741242206	-0.03337513741241314	-2.238134771308883e-05	-1.515301872991178e-05	-0.004287798796229541	-0.002394322221120469	-0.4030418771323371	0.02827976314787994	-0.019980057134121	-0.2298134371877467	0.08470840759182313	0.03655594772249446	0.3321110682157615	-17.55135866821308	-13.40913427520018	2.427563739607311	9.993100044600212	-710.7487381753133	-43.94744641452926	-5.097277372279092	1.793215447384869	0.2369294979524226	1.380776053681036	-5.483365034056327	-0.2186283819498333	-1.530364498133202	-0.01049860402134818	-4.200935484383993	-4.200935484382963	0.0154037597528786	-0.004334859331602601	-0.7719176015861233	-0.3511211519438651	-2.099637536618485e-09	-6.024794788345846e-09	1.456274491797213e-08	6.129916519828538e-10	-3.041047689776441e-09	7.528931935732648e-09	-3.349840149880469e-09
1.02	-0.5985658735303875	-0.0978160236675152	0.6533996299451901	1.735999467947232	-0.3023555958022385	0.0916191033981187	-0.4363245640619292	1.071873241992578	1.071873241990934	-0.1745046430165944	0.1745210528102843	0.1248823789036617	-0.02793054382665163	0.02569644577081377	0.005427265386759021	0.0245391479358734	-0.09365744287251086	-0.00398018806571489	-0.02724805584584572	-0.0001032765501579927	-0.07538387692088339	-0.07538387692087808	-3.014472599827518e-05	-4.08321988091453e-07	-0.01202513855434407	-0.00598299173826566	-0.402759834261777	0.02827782495539041	-0.01999031499087239	-0.2298616403661605	0.08490176936480609	0.03652586238228411	0.3319024993125584	-17.48247855956403	-13.40996701375871	2.429796357552735	9.938131060997327	-710.6196788119755	-43.93053910518029	-5.123675579465462	1.810956655955174	0.2389349080486559	1.381332187272307	-5.503341458061087	-0.2388616548999741	-1.513128017046233	-0.03756106337006756	-4.203464464208385	-4.203464464209065	-0.03318278786248054	0.01259852919925407	-0.7775814039291995	-0.3747719796223177	-5.832519652262489e-09	-1.470044463631945e-08	3.256769745144053e-08	3.653966081412341e-09	-8.659319298447075e-09	1.436356829361504e-08	-7.254435652779674e-09
1.03	-0.5982189804557195	-0.09774980267613076	0.6537139626220311	1.734788586732314	-0.3024065876152364	0.09127047949857765	-0.4363265673906348	1.070909504645631	1.070909504644273	-0.1745049846194972	0.1745211183142783	0.1247234710992147	-0.02800822460081242	0.04368428772913946	0.007822570837715108	0.03832456891426372	-0.1485213351479542	-0.006212069390678897	-0.04247320953903068	-0.0002792377625239666	-0.1173626072251006	-0.1173626072251054	-3.707627236098192e-05	1.068337014961248e-05	-0.01975431058990102	-0.009545484622904407	-0.4026156776571319	0.02836495303098881	-0.02000553441960644	-0.2297429078374477	0.08502226295038395	0.03658216775397199	0.3318858665771534	-17.43590545372906	-13.449075586829	2.443456540998773	9.834090701911325	-710.5449845692561	-43.97012755564682	-5.170643950200649	1.793014841002934	0.2406754142955854	1.376721385175534	-5.478294617628342	-0.214440653305701	-1.526692001418142	-0.0048909428910796	-4.194927272293513	-4.194927272293112	0.01571226980861209	-0.005071121806475135	-0.7702684105044835	-0.3458383990231403	-9.566630477288891e-09	-2.337485288581599e-08	5.056886410981548e-08	6.698152819627944e-09	-1.428137399518411e-08	2.119356518067448e-08	-1.115731397689281e-08
1.04	-0.5976921455865749	-0.09765945922009864	0.6541660643750675	1.733028990293488	-0.302479716097884	0.09076970747089057	-0.436329785788958	1.069526010003906	1.069526010002857	-0.1745053634163535	0.1745212076129969	0.1244873349129766	-0.02812130039504691	0.06168480469686648	0.01025175831629675	0.05209296317444397	-0.2034004876369675	-0.008407521996086244	-0.05767768147078808	-0.0003462906836283694	-0.1593353358800008	-0.1593353358800054	-3.758350546682845e-05	4.350621178980186e-06	-0.02747081491092392	-0.01306199575310417	-0.4024715210524518	0.02845208110659845	-0.02002075384813634	-0.22962417530884	0.08514275653591016	0.03663847312566296	0.3318692338417765	-17.39696787382494	-13.48740969698907	2.457635659413	9.755092282914823	-710.5704953974357	-43.98853474279619	-5.238423186533385	1.813491657835124	0.2457113135739355	1.377926843630342	-5.506393500775171	-0.2315759109887165	-1.508991664760525	-0.01577940511464635	-4.202264134345012	-4.202264134343627	-0.03189792521140592	0.009113640977585101	-0.7750478610221301	-0.3655756287345587	-1.304691031806992e-08	-3.245473106679086e-08	6.798207032252247e-08	9.04310927730143e-09	-1.905842408165922e-08	2.807283110837581e-08	-1.511965719817918e-08
1.05	-0.5969854523553013	-0.09754457954757099	0.654755711971085	1.73072074640754	-0.3025745892357786	0.09011704854259953	-0.4363323039035895	1.067722910776136	1.067722910776218	-0.1745057398389208	0.1745211585974601	0.1241741867622842	-0.02826926000534768	0.07963464291357501	0.0127373706210221	0.06582845564777999	-0.2582286789204368	-0.01055792081314557	-0.07284791157480373	-5.595355345377041e-05	-0.201274160726992	-0.2012741607270182	-3.636784970511455e-05	-1.472978505172854e-05	-0.03514755553723214	-0.01651672665711252	-0.4026108409418613	0.02864013902720374	-0.02003174920906773	-0.2292263839461322	0.08516670019115005	0.03677788141253888	0.3322032768552148	-17.3853965168089	-13.56203035797574	2.483295782451259	9.565646563303257	-710.6545667158267	-44.0439954350025	-5.327427331394516	1.782848547513751	0.2519676514723032	1.370140582469936	-5.468092472951774	-0.2054025203621376	-1.520127206817203	0.0666471231399723	-4.188135461397846	-4.188135461400947	0.01632365686824968	-0.007525162961632654	-0.7622984334154571	-0.3334452893576372	-1.651925794059329e-08	-4.154728018312442e-08	8.537690277130235e-08	1.136621478870798e-08	-2.380906777406364e-08	3.495363669359719e-08	-1.908385869750221e-08
1.06	-0.5960998370131751	-0.09740444745948397	0.6554824705184944	1.727864808502573	-0.3026906924924953	0.08931286960851939	-0.4363288772784432	1.065500734539609	1.065500734540805	-0.1745060656357552	0.1745208975216337	0.1237846089513272	-0.02845137161831291	0.09746922688736169	0.01530224142817074	0.07951515345229651	-0.3129392914365813	-0.01265354576211118	-0.08798168262264579	0.000842657619064023	-0.243150737634908	-0.2431507376349593	-2.745835802083004e-05	-3.806145280760363e-05	-0.04275674696278216	-0.01989239628608792	-0.402750160831054	0.02882819694781502	-0.02004274457015217	-0.2288285925834924	0.08519064384632107	0.03691728969940881	0.3325373198688921	-17.38148368297704	-13.63592425060044	2.50954152587461	9.400328543349502	-710.8396606690985	-44.0789024499485	-5.43812496654841	1.790440809250117	0.2615630140589804	1.368167909866552	-5.482877747310398	-0.2206211373701473	-1.501699853525707	0.1058754033616678	-4.189814546530036	-4.189814546529357	-0.03035915802728092	0.008263388672766945	-0.7615380208698913	-0.3497633737280554	-1.935233140050812e-08	-5.051546255820841e-08	1.013264532669868e-07	1.232831079710471e-08	-2.769091699963764e-08	4.091448892350458e-08	-2.295495446994321e-08
1.07	-0.5950366257041656	-0.09723822822363322	0.6563457656012188	1.724462658583504	-0.3028274560636087	0.08835763549647559	-0.4363129220407251	1.062860283918509	1.06286028391885	-0.1745063144123842	0.1745203964607003	0.1233193336690719	-0.02866680840185117	0.1151348237304858	0.01795904095340644	0.09312696077220919	-0.367438782586007	-0.01468657766143466	-0.1030529763538184	0.002502260944985723	-0.2849105831633783	-0.2849105831633701	-2.079147653793885e-05	-6.074323660428984e-05	-0.050280897741309	-0.02317668235001385	-0.4028217128450394	0.02906897091145228	-0.02005332197382384	-0.2282284719101627	0.08520659375294454	0.03711712450332826	0.3329098816615226	-17.36318996126762	-13.74350179596941	2.546780017216401	9.144461739686982	-710.8242547724728	-44.15731962281661	-5.571142348780621	1.748885163001266	0.2703563610696311	1.355145435797263	-5.425701349121804	-0.1927669140382136	-1.508043844593787	0.2190834355639539	-4.164743623909255	-4.164743623900419	0.01639464980039223	-0.007350131183281513	-0.7452421138921103	-0.3150238191885342	-2.215140091560333e-08	-5.947702968109827e-08	1.171991270630385e-07	1.321801268300091e-08	-3.152655375357172e-08	4.682640746429952e-08	-2.682109781010326e-08
1.08	-0.5937979052185456	-0.09704491740466664	0.6573446704156932	1.720517070442725	-0.3029841744932821	0.08725204850477343	-0.4362757546415977	1.059803100028545	1.059803100028163	-0.1745064535124383	0.1745197053481291	0.1227793391775191	-0.02891454056532102	0.1325710622198937	0.02072055805133402	0.1066370998017778	-0.4216269357499638	-0.01664451747376234	-0.1180522585522267	0.005085089805130387	-0.3264973914080255	-0.326497391407959	-5.52305248262718e-06	-7.60717914809001e-05	-0.05770058882176545	-0.02635147227250194	-0.402893264859576	0.0293097448750485	-0.02006389937804639	-0.2276283512367249	0.08522254365965765	0.03731695930722139	0.333282443453531	-17.352520818503	-13.85045875348961	2.584735555365066	8.910930353591532	-710.9102535115413	-44.21632640744033	-5.727138793819393	1.744569138506201	0.2825065285978631	1.347834251797878	-5.420610150216747	-0.2056027199712708	-1.487297546972954	0.2905205102036006	-4.155207089765447	-4.155207089764976	-0.02863884951318328	0.009734034457289632	-0.7406460812550449	-0.3278641454406621	-2.448759884816924e-08	-6.763651410072845e-08	1.302664533803234e-07	1.372868858078123e-08	-3.506252743065741e-08	5.113090386441317e-08	-2.997265283984002e-08
